<mxfile host="app.diagrams.net" modified="2024-05-27T00:56:09.273Z" agent="Mozilla/5.0 (Windows NT 10.0; Win64; x64) AppleWebKit/537.36 (KHTML, like Gecko) Chrome/125.0.0.0 Safari/537.36" etag="QUNF7pWt1LX8FNFd-XhF" version="24.4.8" type="github">
  <diagram name="Page-1" id="WLO4LGo2Aa8Ct4FPDcbk">
    <mxGraphModel dx="2261" dy="1907" grid="1" gridSize="10" guides="1" tooltips="1" connect="1" arrows="1" fold="1" page="1" pageScale="1" pageWidth="827" pageHeight="1169" math="0" shadow="0">
      <root>
        <mxCell id="0" />
        <mxCell id="1" parent="0" />
        <mxCell id="jW_kl0NcLJmKantq0PO1-5" value="API expuesta a cliente" style="whiteSpace=wrap;html=1;aspect=fixed;" vertex="1" parent="1">
          <mxGeometry x="40" y="470" width="80" height="80" as="geometry" />
        </mxCell>
        <mxCell id="jW_kl0NcLJmKantq0PO1-23" value="" style="edgeStyle=orthogonalEdgeStyle;rounded=0;orthogonalLoop=1;jettySize=auto;html=1;" edge="1" parent="1" source="jW_kl0NcLJmKantq0PO1-6" target="jW_kl0NcLJmKantq0PO1-16">
          <mxGeometry relative="1" as="geometry">
            <Array as="points">
              <mxPoint x="190" y="405" />
              <mxPoint x="190" y="360" />
            </Array>
          </mxGeometry>
        </mxCell>
        <mxCell id="jW_kl0NcLJmKantq0PO1-24" style="edgeStyle=orthogonalEdgeStyle;rounded=0;orthogonalLoop=1;jettySize=auto;html=1;entryX=1;entryY=0.5;entryDx=0;entryDy=0;" edge="1" parent="1" source="jW_kl0NcLJmKantq0PO1-6" target="jW_kl0NcLJmKantq0PO1-5">
          <mxGeometry relative="1" as="geometry">
            <Array as="points">
              <mxPoint x="190" y="405" />
              <mxPoint x="190" y="510" />
            </Array>
          </mxGeometry>
        </mxCell>
        <mxCell id="jW_kl0NcLJmKantq0PO1-26" style="edgeStyle=orthogonalEdgeStyle;rounded=0;orthogonalLoop=1;jettySize=auto;html=1;entryX=1;entryY=0.5;entryDx=0;entryDy=0;" edge="1" parent="1" source="jW_kl0NcLJmKantq0PO1-6" target="jW_kl0NcLJmKantq0PO1-25">
          <mxGeometry relative="1" as="geometry">
            <Array as="points">
              <mxPoint x="190" y="405" />
              <mxPoint x="190" y="620" />
            </Array>
          </mxGeometry>
        </mxCell>
        <mxCell id="jW_kl0NcLJmKantq0PO1-30" style="edgeStyle=orthogonalEdgeStyle;rounded=0;orthogonalLoop=1;jettySize=auto;html=1;entryX=1;entryY=0.5;entryDx=0;entryDy=0;" edge="1" parent="1" source="jW_kl0NcLJmKantq0PO1-6" target="jW_kl0NcLJmKantq0PO1-28">
          <mxGeometry relative="1" as="geometry">
            <Array as="points">
              <mxPoint x="190" y="405" />
              <mxPoint x="190" y="730" />
            </Array>
          </mxGeometry>
        </mxCell>
        <mxCell id="jW_kl0NcLJmKantq0PO1-6" value="BD No SQL" style="shape=cylinder3;whiteSpace=wrap;html=1;boundedLbl=1;backgroundOutline=1;size=15;" vertex="1" parent="1">
          <mxGeometry x="240" y="330" width="136" height="150" as="geometry" />
        </mxCell>
        <mxCell id="jW_kl0NcLJmKantq0PO1-14" style="edgeStyle=orthogonalEdgeStyle;rounded=0;orthogonalLoop=1;jettySize=auto;html=1;" edge="1" parent="1" source="jW_kl0NcLJmKantq0PO1-7" target="jW_kl0NcLJmKantq0PO1-12">
          <mxGeometry relative="1" as="geometry" />
        </mxCell>
        <mxCell id="jW_kl0NcLJmKantq0PO1-7" value="API de servicios meteorológicos" style="whiteSpace=wrap;html=1;aspect=fixed;" vertex="1" parent="1">
          <mxGeometry x="610" y="-60" width="100" height="100" as="geometry" />
        </mxCell>
        <mxCell id="jW_kl0NcLJmKantq0PO1-13" style="edgeStyle=orthogonalEdgeStyle;rounded=0;orthogonalLoop=1;jettySize=auto;html=1;" edge="1" parent="1" source="jW_kl0NcLJmKantq0PO1-8" target="jW_kl0NcLJmKantq0PO1-12">
          <mxGeometry relative="1" as="geometry" />
        </mxCell>
        <mxCell id="jW_kl0NcLJmKantq0PO1-8" value="Web que contiene los datos en tiempo real de contaminación" style="shape=hexagon;perimeter=hexagonPerimeter2;whiteSpace=wrap;html=1;fixedSize=1;" vertex="1" parent="1">
          <mxGeometry x="400" y="-60" width="180" height="80" as="geometry" />
        </mxCell>
        <mxCell id="jW_kl0NcLJmKantq0PO1-9" value="&lt;div&gt;&lt;br&gt;&lt;/div&gt;" style="text;html=1;align=center;verticalAlign=middle;resizable=0;points=[];autosize=1;strokeColor=none;fillColor=none;" vertex="1" parent="1">
          <mxGeometry x="530" y="155" width="20" height="30" as="geometry" />
        </mxCell>
        <mxCell id="jW_kl0NcLJmKantq0PO1-12" value="&lt;div&gt;ETL (se ejecuta cada hora)&lt;br&gt;&lt;/div&gt;&lt;div&gt;&lt;br&gt;&lt;/div&gt;&lt;div&gt;Parte WEB:&lt;/div&gt;Usamos un scrapper para ir descargando los datos de la web&amp;nbsp;&lt;span style=&quot;background-color: initial;&quot;&gt;cada hora y&amp;nbsp;&lt;/span&gt;&lt;span style=&quot;background-color: initial;&quot;&gt;procesamos los datos para dejarlos en el formato&amp;nbsp;&lt;/span&gt;&lt;span style=&quot;background-color: initial;&quot;&gt;correcto.&lt;/span&gt;&lt;div&gt;&lt;br&gt;&lt;/div&gt;&lt;div&gt;Parte API:&lt;/div&gt;&lt;div&gt;Hacemos las consultas para añadir los datos de temperatura&amp;nbsp;&lt;span style=&quot;background-color: initial;&quot;&gt;a los&amp;nbsp;&lt;/span&gt;&lt;span style=&quot;background-color: initial;&quot;&gt;datos de contaminación de la&amp;nbsp;&lt;/span&gt;&lt;/div&gt;&lt;div&gt;&lt;span style=&quot;background-color: initial;&quot;&gt;parte WEB&lt;/span&gt;&lt;/div&gt;&lt;div&gt;&lt;br style=&quot;text-wrap: nowrap;&quot;&gt;&lt;/div&gt;" style="shape=process;whiteSpace=wrap;html=1;backgroundOutline=1;" vertex="1" parent="1">
          <mxGeometry x="340" y="80" width="410" height="210" as="geometry" />
        </mxCell>
        <mxCell id="jW_kl0NcLJmKantq0PO1-15" style="edgeStyle=orthogonalEdgeStyle;rounded=0;orthogonalLoop=1;jettySize=auto;html=1;entryX=1;entryY=0.5;entryDx=0;entryDy=0;entryPerimeter=0;" edge="1" parent="1" source="jW_kl0NcLJmKantq0PO1-12" target="jW_kl0NcLJmKantq0PO1-6">
          <mxGeometry relative="1" as="geometry" />
        </mxCell>
        <mxCell id="jW_kl0NcLJmKantq0PO1-16" value="Web expuesta a cliente" style="shape=hexagon;perimeter=hexagonPerimeter2;whiteSpace=wrap;html=1;fixedSize=1;" vertex="1" parent="1">
          <mxGeometry x="30" y="320" width="120" height="80" as="geometry" />
        </mxCell>
        <mxCell id="jW_kl0NcLJmKantq0PO1-17" value="ETL (se ejecuta puntualmente y es una ingesta masiva)" style="shape=process;whiteSpace=wrap;html=1;backgroundOutline=1;" vertex="1" parent="1">
          <mxGeometry x="560" y="440" width="120" height="60" as="geometry" />
        </mxCell>
        <mxCell id="jW_kl0NcLJmKantq0PO1-19" value="Podríamos utilizar Kafka para la ETL que se ejecuta cada hora pero el volúmen de los datos y&amp;nbsp;&lt;div&gt;la frecuencia de envío de los mismos debería ser mayor&lt;/div&gt;" style="text;html=1;align=center;verticalAlign=middle;resizable=0;points=[];autosize=1;strokeColor=none;fillColor=none;" vertex="1" parent="1">
          <mxGeometry x="-190" y="130" width="530" height="40" as="geometry" />
        </mxCell>
        <mxCell id="jW_kl0NcLJmKantq0PO1-21" style="edgeStyle=orthogonalEdgeStyle;rounded=0;orthogonalLoop=1;jettySize=auto;html=1;entryX=1;entryY=0.5;entryDx=0;entryDy=0;entryPerimeter=0;" edge="1" parent="1" source="jW_kl0NcLJmKantq0PO1-17" target="jW_kl0NcLJmKantq0PO1-6">
          <mxGeometry relative="1" as="geometry" />
        </mxCell>
        <mxCell id="jW_kl0NcLJmKantq0PO1-22" value="Podríamos usar Cassandra.&lt;div&gt;Mi preferencía es cualquier BD No SQL&lt;/div&gt;&lt;div&gt;&amp;nbsp;en la nube (solo pagas por lo que usas).&lt;/div&gt;&lt;div&gt;No creo que sea útil tener un datalake ya&amp;nbsp;&lt;/div&gt;&lt;div&gt;que la cantidad&amp;nbsp;&lt;span style=&quot;background-color: initial;&quot;&gt;de datos&amp;nbsp;&lt;/span&gt;&lt;span style=&quot;background-color: initial;&quot;&gt;no es grande y&amp;nbsp;&lt;/span&gt;&lt;span style=&quot;background-color: initial;&quot;&gt;puede&amp;nbsp;&lt;/span&gt;&lt;/div&gt;&lt;div&gt;&lt;span style=&quot;background-color: initial;&quot;&gt;haber&amp;nbsp;&lt;/span&gt;&lt;span style=&quot;background-color: initial;&quot;&gt;problemas&amp;nbsp;&lt;/span&gt;&lt;span style=&quot;background-color: initial;&quot;&gt;a nivel de sistemas&lt;/span&gt;&lt;/div&gt;" style="text;html=1;align=center;verticalAlign=middle;resizable=0;points=[];autosize=1;strokeColor=none;fillColor=none;" vertex="1" parent="1">
          <mxGeometry x="185" y="485" width="280" height="100" as="geometry" />
        </mxCell>
        <mxCell id="jW_kl0NcLJmKantq0PO1-25" value="Modelo predictivo" style="shape=parallelogram;perimeter=parallelogramPerimeter;whiteSpace=wrap;html=1;fixedSize=1;" vertex="1" parent="1">
          <mxGeometry x="20" y="590" width="120" height="60" as="geometry" />
        </mxCell>
        <mxCell id="jW_kl0NcLJmKantq0PO1-27" value="Si tenemos los datos en la nube, existen herramientas para obtener&amp;nbsp;&lt;div&gt;modelos predictivos a partir de datos de forma sencilla (BigQuery)&lt;/div&gt;" style="text;html=1;align=center;verticalAlign=middle;resizable=0;points=[];autosize=1;strokeColor=none;fillColor=none;" vertex="1" parent="1">
          <mxGeometry x="-360" y="600" width="390" height="40" as="geometry" />
        </mxCell>
        <mxCell id="jW_kl0NcLJmKantq0PO1-28" value="Análisis Ad-Hoc" style="rhombus;whiteSpace=wrap;html=1;" vertex="1" parent="1">
          <mxGeometry x="25" y="680" width="100" height="100" as="geometry" />
        </mxCell>
        <mxCell id="jW_kl0NcLJmKantq0PO1-32" value="Utilizando python/notebooks y exponiendo los datos en una plataforma&lt;div&gt;&amp;nbsp;de visualización como Power BI/Tableu&amp;nbsp;&lt;/div&gt;" style="text;html=1;align=center;verticalAlign=middle;resizable=0;points=[];autosize=1;strokeColor=none;fillColor=none;" vertex="1" parent="1">
          <mxGeometry x="-370" y="710" width="400" height="40" as="geometry" />
        </mxCell>
      </root>
    </mxGraphModel>
  </diagram>
</mxfile>
